<mxfile host="65bd71144e">
    <diagram id="9_Ka-1kVAdu8fKACdFex" name="Page-1">
        <mxGraphModel dx="1113" dy="634" grid="0" gridSize="10" guides="1" tooltips="1" connect="1" arrows="1" fold="1" page="1" pageScale="1" pageWidth="1100" pageHeight="1700" background="#ffffff" math="0" shadow="0">
            <root>
                <mxCell id="0"/>
                <mxCell id="1" parent="0"/>
                <mxCell id="2" value="Start" style="ellipse;whiteSpace=wrap;html=1;fillColor=#008a00;fontColor=#ffffff;strokeColor=#005700;" vertex="1" parent="1">
                    <mxGeometry x="39" y="454" width="77" height="50" as="geometry"/>
                </mxCell>
                <mxCell id="3" value="" style="endArrow=classic;html=1;strokeColor=#121212;" edge="1" parent="1">
                    <mxGeometry width="50" height="50" relative="1" as="geometry">
                        <mxPoint x="125" y="480" as="sourcePoint"/>
                        <mxPoint x="157" y="480" as="targetPoint"/>
                    </mxGeometry>
                </mxCell>
                <mxCell id="4" value="&lt;b&gt;Internet&lt;/b&gt;" style="rhombus;whiteSpace=wrap;html=1;fillColor=#f0a30a;fontColor=#000000;strokeColor=#BD7000;" vertex="1" parent="1">
                    <mxGeometry x="164" y="445.5" width="68" height="67" as="geometry"/>
                </mxCell>
                <mxCell id="5" value="" style="endArrow=classic;html=1;strokeColor=#121212;" edge="1" parent="1">
                    <mxGeometry width="50" height="50" relative="1" as="geometry">
                        <mxPoint x="198" y="436" as="sourcePoint"/>
                        <mxPoint x="253" y="365" as="targetPoint"/>
                        <Array as="points">
                            <mxPoint x="196" y="365"/>
                        </Array>
                    </mxGeometry>
                </mxCell>
                <mxCell id="6" value="" style="endArrow=classic;html=1;strokeColor=#121212;" edge="1" parent="1">
                    <mxGeometry width="50" height="50" relative="1" as="geometry">
                        <mxPoint x="234" y="479" as="sourcePoint"/>
                        <mxPoint x="285" y="479" as="targetPoint"/>
                    </mxGeometry>
                </mxCell>
                <mxCell id="7" value="&lt;b&gt;Registration&lt;/b&gt;" style="rhombus;whiteSpace=wrap;html=1;fillColor=#f0a30a;fontColor=#000000;strokeColor=#BD7000;" vertex="1" parent="1">
                    <mxGeometry x="286" y="433.75" width="87" height="90.5" as="geometry"/>
                </mxCell>
                <mxCell id="8" value="" style="endArrow=classic;html=1;strokeColor=#121212;" edge="1" parent="1" target="9">
                    <mxGeometry width="50" height="50" relative="1" as="geometry">
                        <mxPoint x="367" y="478.5500000000001" as="sourcePoint"/>
                        <mxPoint x="412" y="479" as="targetPoint"/>
                    </mxGeometry>
                </mxCell>
                <mxCell id="11" value="" style="edgeStyle=none;html=1;strokeColor=#121212;" edge="1" parent="1" source="9">
                    <mxGeometry relative="1" as="geometry">
                        <mxPoint x="625" y="479" as="targetPoint"/>
                    </mxGeometry>
                </mxCell>
                <mxCell id="9" value="&lt;b&gt;Home&lt;/b&gt;" style="rounded=1;whiteSpace=wrap;html=1;fillColor=#fa6800;fontColor=#000000;strokeColor=#C73500;" vertex="1" parent="1">
                    <mxGeometry x="416" y="450" width="91" height="58" as="geometry"/>
                </mxCell>
                <mxCell id="12" value="&lt;font color=&quot;#171616&quot;&gt;Navigate to camera screen&lt;/font&gt;" style="text;html=1;strokeColor=none;fillColor=none;align=center;verticalAlign=middle;whiteSpace=wrap;rounded=0;" vertex="1" parent="1">
                    <mxGeometry x="530" y="440" width="70" height="35.5" as="geometry"/>
                </mxCell>
                <mxCell id="13" value="Capture Image" style="rhombus;whiteSpace=wrap;html=1;fontColor=#000000;fillColor=#f0a30a;strokeColor=#BD7000;" vertex="1" parent="1">
                    <mxGeometry x="628" y="439" width="80" height="80" as="geometry"/>
                </mxCell>
                <mxCell id="14" value="&lt;b&gt;Home&lt;/b&gt;" style="rounded=1;whiteSpace=wrap;html=1;fillColor=#fa6800;fontColor=#000000;strokeColor=#C73500;" vertex="1" parent="1">
                    <mxGeometry x="255" y="336" width="91" height="58" as="geometry"/>
                </mxCell>
                <mxCell id="15" value="" style="edgeStyle=none;html=1;strokeColor=#121212;" edge="1" parent="1">
                    <mxGeometry relative="1" as="geometry">
                        <mxPoint x="345.9999999999998" y="349.0000000000001" as="sourcePoint"/>
                        <mxPoint x="464" y="349.0000000000001" as="targetPoint"/>
                    </mxGeometry>
                </mxCell>
                <mxCell id="16" value="&lt;font color=&quot;#171616&quot;&gt;Navigate to camera screen&lt;/font&gt;" style="text;html=1;strokeColor=none;fillColor=none;align=center;verticalAlign=middle;whiteSpace=wrap;rounded=0;" vertex="1" parent="1">
                    <mxGeometry x="369" y="310" width="70" height="35.5" as="geometry"/>
                </mxCell>
                <mxCell id="17" value="Capture Image" style="rhombus;whiteSpace=wrap;html=1;fontColor=#000000;fillColor=#f0a30a;strokeColor=#BD7000;" vertex="1" parent="1">
                    <mxGeometry x="467" y="309" width="80" height="80" as="geometry"/>
                </mxCell>
                <mxCell id="18" value="" style="endArrow=classic;html=1;strokeColor=#121212;" edge="1" parent="1" target="19">
                    <mxGeometry width="50" height="50" relative="1" as="geometry">
                        <mxPoint x="708" y="478.57000000000016" as="sourcePoint"/>
                        <mxPoint x="757" y="478.8033333333334" as="targetPoint"/>
                    </mxGeometry>
                </mxCell>
                <mxCell id="21" value="" style="edgeStyle=none;html=1;strokeColor=#121212;fontColor=#171616;" edge="1" parent="1" source="19" target="20">
                    <mxGeometry relative="1" as="geometry"/>
                </mxCell>
                <mxCell id="19" value="&lt;b&gt;Prediction&lt;/b&gt;" style="rounded=0;whiteSpace=wrap;html=1;fontColor=#000000;fillColor=#fa6800;strokeColor=#C73500;" vertex="1" parent="1">
                    <mxGeometry x="768" y="456.5" width="89" height="45" as="geometry"/>
                </mxCell>
                <mxCell id="23" value="" style="edgeStyle=none;html=1;strokeColor=#121212;fontColor=#171616;" edge="1" parent="1" source="20" target="22">
                    <mxGeometry relative="1" as="geometry"/>
                </mxCell>
                <mxCell id="25" value="" style="edgeStyle=none;html=1;strokeColor=#121212;fontColor=#171616;" edge="1" parent="1" source="20" target="24">
                    <mxGeometry relative="1" as="geometry"/>
                </mxCell>
                <mxCell id="20" value="&lt;b&gt;Internet&lt;/b&gt;" style="rhombus;whiteSpace=wrap;html=1;fillColor=#f0a30a;strokeColor=#BD7000;fontColor=#000000;rounded=0;" vertex="1" parent="1">
                    <mxGeometry x="941.5" y="439" width="80" height="80" as="geometry"/>
                </mxCell>
                <mxCell id="22" value="&lt;b&gt;Save To Local Storage&lt;/b&gt;" style="whiteSpace=wrap;html=1;fillColor=#f0a30a;strokeColor=#BD7000;fontColor=#000000;rounded=0;" vertex="1" parent="1">
                    <mxGeometry x="921.5" y="289" width="120" height="60" as="geometry"/>
                </mxCell>
                <mxCell id="35" value="" style="edgeStyle=none;html=1;strokeColor=#121212;fontColor=#171616;" edge="1" parent="1" source="24" target="34">
                    <mxGeometry relative="1" as="geometry"/>
                </mxCell>
                <mxCell id="24" value="&lt;b&gt;Save to Cloud Storage&lt;/b&gt;" style="rounded=0;whiteSpace=wrap;html=1;fillColor=#f0a30a;strokeColor=#BD7000;fontColor=#000000;" vertex="1" parent="1">
                    <mxGeometry x="1081.5" y="449" width="120" height="60" as="geometry"/>
                </mxCell>
                <mxCell id="26" value="" style="endArrow=classic;html=1;strokeColor=#121212;" edge="1" target="27" parent="1">
                    <mxGeometry width="50" height="50" relative="1" as="geometry">
                        <mxPoint x="547" y="348.57000000000016" as="sourcePoint"/>
                        <mxPoint x="596" y="348.8033333333334" as="targetPoint"/>
                    </mxGeometry>
                </mxCell>
                <mxCell id="29" value="" style="edgeStyle=none;html=1;strokeColor=#121212;fontColor=#171616;" edge="1" parent="1" source="27" target="28">
                    <mxGeometry relative="1" as="geometry"/>
                </mxCell>
                <mxCell id="27" value="&lt;b&gt;Prediction&lt;/b&gt;" style="rounded=0;whiteSpace=wrap;html=1;fontColor=#000000;fillColor=#fa6800;strokeColor=#C73500;" vertex="1" parent="1">
                    <mxGeometry x="607" y="326.5" width="89" height="45" as="geometry"/>
                </mxCell>
                <mxCell id="31" value="" style="edgeStyle=none;html=1;strokeColor=#121212;fontColor=#171616;" edge="1" parent="1" source="28" target="30">
                    <mxGeometry relative="1" as="geometry"/>
                </mxCell>
                <mxCell id="28" value="&lt;b&gt;Save To Local Storage&lt;/b&gt;" style="whiteSpace=wrap;html=1;fillColor=#f0a30a;strokeColor=#BD7000;fontColor=#000000;rounded=0;" vertex="1" parent="1">
                    <mxGeometry x="760.5" y="319" width="120" height="60" as="geometry"/>
                </mxCell>
                <mxCell id="30" value="complete" style="ellipse;whiteSpace=wrap;html=1;fillColor=#008a00;strokeColor=#005700;fontColor=#ffffff;rounded=0;" vertex="1" parent="1">
                    <mxGeometry x="780.5" y="203" width="82.5" height="46" as="geometry"/>
                </mxCell>
                <mxCell id="32" value="" style="edgeStyle=none;html=1;strokeColor=#121212;fontColor=#171616;" edge="1" target="33" parent="1">
                    <mxGeometry relative="1" as="geometry">
                        <mxPoint x="973.3122726104812" y="289" as="sourcePoint"/>
                    </mxGeometry>
                </mxCell>
                <mxCell id="33" value="complete" style="ellipse;whiteSpace=wrap;html=1;fillColor=#008a00;strokeColor=#005700;fontColor=#ffffff;rounded=0;" vertex="1" parent="1">
                    <mxGeometry x="933" y="173" width="82.5" height="46" as="geometry"/>
                </mxCell>
                <mxCell id="34" value="complete" style="ellipse;whiteSpace=wrap;html=1;fillColor=#008a00;strokeColor=#005700;fontColor=#ffffff;rounded=0;" vertex="1" parent="1">
                    <mxGeometry x="1274" y="455" width="82.5" height="54" as="geometry"/>
                </mxCell>
            </root>
        </mxGraphModel>
    </diagram>
</mxfile>